{
  "accessors": [
    {
      "bufferView": 2,
      "componentType": 5126,
      "count": 13695,
      "max": [
        28.739461898803711,
        9.2503032684326172,
        23.529918670654297
      ],
      "min": [
        -28.23188591003418,
        -10.514605522155762,
        -31.190013885498047
      ],
      "type": "VEC3"
    },
    {
      "bufferView": 2,
      "byteOffset": 164340,
      "componentType": 5126,
      "count": 13695,
      "max": [
        0.99997848272323608,
        0.98378223180770874,
        0.99999392032623291
      ],
      "min": [
        -0.99994939565658569,
        -0.99999713897705078,
        -0.99987101554870605
      ],
      "type": "VEC3"
    },
    {
      "bufferView": 3,
      "componentType": 5126,
      "count": 13695,
      "max": [
        0.99996727705001831,
        0.99964398145675659,
        0.99999576807022095,
        1
      ],
      "min": [
        -0.99973231554031372,
        -0.99993604421615601,
        -0.99992680549621582,
        -1
      ],
      "type": "VEC4"
    },
    {
      "bufferView": 1,
      "componentType": 5126,
      "count": 13695,
      "max": [
        0.99880385398864746,
        0.99691504240036011
      ],
      "min": [
        0.0010792695684358478,
        0.0010264033917337656
      ],
      "type": "VEC2"
    },
    {
      "bufferView": 0,
      "componentType": 5125,
      "count": 70743,
      "max": [
        13694
      ],
      "min": [
        0
      ],
      "type": "SCALAR"
    }
  ],
  "asset": {
    "extras": {
      "author": "3dhdscan (https://sketchfab.com/3dhdscan)",
      "license": "CC-BY-4.0 (http://creativecommons.org/licenses/by/4.0/)",
      "source": "https://sketchfab.com/models/b968b5dc462148989cb87b072885da85",
      "title": "Boubín Stump"
    },
    "generator": "Sketchfab-3.19.2",
    "version": "2.0"
  },
  "bufferViews": [
    {
      "buffer": 0,
      "byteLength": 282972,
      "byteOffset": 0,
      "name": "floatBufferViews",
      "target": 34963
    },
    {
      "buffer": 0,
      "byteLength": 109560,
      "byteOffset": 282972,
      "byteStride": 8,
      "name": "floatBufferViews",
      "target": 34962
    },
    {
      "buffer": 0,
      "byteLength": 328680,
      "byteOffset": 392532,
      "byteStride": 12,
      "name": "floatBufferViews",
      "target": 34962
    },
    {
      "buffer": 0,
      "byteLength": 219120,
      "byteOffset": 721212,
      "byteStride": 16,
      "name": "floatBufferViews",
      "target": 34962
    }
  ],
  "buffers": [
    {
      "byteLength": 940332,
      "uri": "scene.bin"
    }
  ],
  "images": [
    {
      "uri": "textures/boubin_stump_metallicRoughness.png"
    },
    {
      "uri": "textures/boubin_stump_normal.jpeg"
    },
    {
      "uri": "textures/boubin_stump_baseColor.jpeg"
    }
  ],
  "materials": [
    {
      "doubleSided": true,
      "emissiveFactor": [
        0,
        0,
        0
      ],
      "name": "boubin_stump",
      "normalTexture": {
        "index": 1,
        "scale": 1,
        "texCoord": 0
      },
      "occlusionTexture": {
        "index": 0,
        "strength": 0.70293445119999998,
        "texCoord": 0
      },
      "pbrMetallicRoughness": {
        "baseColorFactor": [
          1,
          1,
          1,
          1
        ],
        "baseColorTexture": {
          "index": 2,
          "texCoord": 0
        },
        "metallicFactor": 0,
        "roughnessFactor": 0.90072408540000004
      }
    }
  ],
  "meshes": [
    {
      "name": "boubin_stump_boubin_stump_0",
      "primitives": [
        {
          "attributes": {
            "NORMAL": 1,
            "POSITION": 0,
            "TANGENT": 2,
            "TEXCOORD_0": 3
          },
          "indices": 4,
          "material": 0,
          "mode": 4
        }
      ]
    }
  ],
  "nodes": [
    {
      "children": [
        1
      ],
      "name": "RootNode (gltf orientation matrix)",
      "rotation": [
        -0.70710678118654746,
        -0,
        -0,
        0.70710678118654757
      ]
    },
    {
      "children": [
        2
      ],
      "matrix": [
        1,
        0,
        0,
        0,
        0,
        0,
        1,
        0,
        0,
        -1,
        0,
        0,
        0,
        11.724154472351074,
        -8.8796815872192383,
        1
      ],
      "name": "RootNode (model correction matrix)"
    },
    {
      "children": [
        3
      ],
      "matrix": [
        1,
        0,
        0,
        0,
        0,
        -1,
        0,
        0,
        0,
        0,
        -1,
        0,
        0,
        0,
        0,
        1
      ],
      "name": "boubin_stump.FBX"
    },
    {
      "children": [
        4
      ],
      "name": "RootNode"
    },
    {
      "children": [
        5
      ],
      "matrix": [
        1,
        0,
        0,
        0,
        0,
        1,
        0,
        0,
        0,
        0,
        1,
        0,
        -6.86041259765625,
        -9.6697816848754883,
        2.4078102111816406,
        1
      ],
      "name": "boubin_stump"
    },
    {
      "mesh": 0,
      "name": "boubin_stump_boubin_stump_0"
    }
  ],
  "samplers": [
    {
      "magFilter": 9729,
      "minFilter": 9987,
      "wrapS": 10497,
      "wrapT": 10497
    }
  ],
  "scene": 0,
  "scenes": [
    {
      "name": "OSG_Scene",
      "nodes": [
        0
      ]
    }
  ],
  "textures": [
    {
      "sampler": 0,
      "source": 0
    },
    {
      "sampler": 0,
      "source": 1
    },
    {
      "sampler": 0,
      "source": 2
    }
  ]
}

