{
  "accessors": [
    {
      "bufferView": 2,
      "componentType": 5126,
      "count": 3970,
      "max": [
        26.793674468994141,
        32.931438446044922,
        16.351741790771484
      ],
      "min": [
        -64.623512268066406,
        -26.669893264770508,
        -1.0373589992523193
      ],
      "type": "VEC3"
    },
    {
      "bufferView": 2,
      "byteOffset": 47640,
      "componentType": 5126,
      "count": 3970,
      "max": [
        0.99998342990875244,
        1,
        1
      ],
      "min": [
        -1,
        -1,
        -1
      ],
      "type": "VEC3"
    },
    {
      "bufferView": 1,
      "componentType": 5126,
      "count": 3970,
      "max": [
        0.875,
        1
      ],
      "min": [
        0.125,
        0
      ],
      "type": "VEC2"
    },
    {
      "bufferView": 0,
      "componentType": 5125,
      "count": 6096,
      "max": [
        3969
      ],
      "min": [
        0
      ],
      "type": "SCALAR"
    },
    {
      "bufferView": 2,
      "byteOffset": 95280,
      "componentType": 5126,
      "count": 132,
      "max": [
        26.648666381835938,
        9.949986457824707,
        13.278735160827637
      ],
      "min": [
        7.2058072090148926,
        -0.2765510082244873,
        -0.54760700464248657
      ],
      "type": "VEC3"
    },
    {
      "bufferView": 2,
      "byteOffset": 96864,
      "componentType": 5126,
      "count": 132,
      "max": [
        0.99991559982299805,
        0.99991559982299805,
        1
      ],
      "min": [
        -0.99991559982299805,
        -0.99991559982299805,
        -1
      ],
      "type": "VEC3"
    },
    {
      "bufferView": 1,
      "byteOffset": 31760,
      "componentType": 5126,
      "count": 132,
      "max": [
        0.875,
        1
      ],
      "min": [
        0.125,
        0
      ],
      "type": "VEC2"
    },
    {
      "bufferView": 0,
      "byteOffset": 24384,
      "componentType": 5125,
      "count": 204,
      "max": [
        131
      ],
      "min": [
        0
      ],
      "type": "SCALAR"
    },
    {
      "bufferView": 2,
      "byteOffset": 98448,
      "componentType": 5126,
      "count": 2988,
      "max": [
        24.530872344970703,
        32.767578125,
        12.237444877624512
      ],
      "min": [
        -63.503067016601562,
        -26.384307861328125,
        -0.82944101095199585
      ],
      "type": "VEC3"
    },
    {
      "bufferView": 2,
      "byteOffset": 134304,
      "componentType": 5126,
      "count": 2988,
      "max": [
        1,
        1,
        1
      ],
      "min": [
        -1,
        -1,
        -1
      ],
      "type": "VEC3"
    },
    {
      "bufferView": 1,
      "byteOffset": 32816,
      "componentType": 5126,
      "count": 2988,
      "max": [
        0.875,
        1
      ],
      "min": [
        0.125,
        0
      ],
      "type": "VEC2"
    },
    {
      "bufferView": 0,
      "byteOffset": 25200,
      "componentType": 5125,
      "count": 4824,
      "max": [
        2987
      ],
      "min": [
        0
      ],
      "type": "SCALAR"
    }
  ],
  "asset": {
    "extras": {
      "author": "kenlong (https://sketchfab.com/kenlong)",
      "license": "CC-BY-4.0 (http://creativecommons.org/licenses/by/4.0/)",
      "source": "https://sketchfab.com/3d-models/cartoon-boardwalk-large-t-f654ad5d81184eb8af486e5abfd05676",
      "title": "Cartoon Boardwalk Large T"
    },
    "generator": "Sketchfab-8.87.0",
    "version": "2.0"
  },
  "bufferViews": [
    {
      "buffer": 0,
      "byteLength": 44496,
      "byteOffset": 0,
      "name": "floatBufferViews",
      "target": 34963
    },
    {
      "buffer": 0,
      "byteLength": 56720,
      "byteOffset": 44496,
      "byteStride": 8,
      "name": "floatBufferViews",
      "target": 34962
    },
    {
      "buffer": 0,
      "byteLength": 170160,
      "byteOffset": 101216,
      "byteStride": 12,
      "name": "floatBufferViews",
      "target": 34962
    }
  ],
  "buffers": [
    {
      "byteLength": 271376,
      "uri": "scene.bin"
    }
  ],
  "materials": [
    {
      "doubleSided": true,
      "emissiveFactor": [
        0,
        0,
        0
      ],
      "name": "Brown1",
      "pbrMetallicRoughness": {
        "baseColorFactor": [
          0.66311600000000004,
          0.28850100000000001,
          0.088376999999999997,
          1
        ],
        "metallicFactor": 0,
        "roughnessFactor": 0.89171316146660029
      }
    },
    {
      "doubleSided": true,
      "emissiveFactor": [
        0,
        0,
        0
      ],
      "name": "BrownLight",
      "pbrMetallicRoughness": {
        "baseColorFactor": [
          0.39887800000000001,
          0.104093,
          0,
          1
        ],
        "metallicFactor": 0,
        "roughnessFactor": 0.82414980184221442
      }
    },
    {
      "doubleSided": true,
      "emissiveFactor": [
        0,
        0,
        0
      ],
      "name": "Material",
      "pbrMetallicRoughness": {
        "baseColorFactor": [
          0.80000000000000004,
          0.37101800000000001,
          0.037033999999999997,
          1
        ],
        "metallicFactor": 0,
        "roughnessFactor": 0.88094119100209345
      }
    }
  ],
  "meshes": [
    {
      "primitives": [
        {
          "attributes": {
            "NORMAL": 1,
            "POSITION": 0,
            "TEXCOORD_0": 2
          },
          "indices": 3,
          "material": 0,
          "mode": 4
        }
      ]
    },
    {
      "primitives": [
        {
          "attributes": {
            "NORMAL": 5,
            "POSITION": 4,
            "TEXCOORD_0": 6
          },
          "indices": 7,
          "material": 1,
          "mode": 4
        }
      ]
    },
    {
      "primitives": [
        {
          "attributes": {
            "NORMAL": 9,
            "POSITION": 8,
            "TEXCOORD_0": 10
          },
          "indices": 11,
          "material": 2,
          "mode": 4
        }
      ]
    }
  ],
  "nodes": [
    {
      "children": [
        1
      ],
      "name": "RootNode (gltf orientation matrix)",
      "rotation": [
        -0.70710678118654746,
        -0,
        -0,
        0.70710678118654757
      ]
    },
    {
      "children": [
        2
      ],
      "name": "RootNode (model correction matrix)"
    },
    {
      "children": [
        3,
        4,
        5
      ],
      "name": "Cartoon Boardwalk Large T.obj.cleaner.materialmerger.gles"
    },
    {
      "mesh": 0,
      "name": ""
    },
    {
      "mesh": 1,
      "name": ""
    },
    {
      "mesh": 2,
      "name": ""
    }
  ],
  "scene": 0,
  "scenes": [
    {
      "name": "OSG_Scene",
      "nodes": [
        0
      ]
    }
  ]
}

