{
  "accessors": [
    {
      "bufferView": 1,
      "componentType": 5126,
      "count": 120,
      "max": [
        399.8140869140625,
        181.79937744140625,
        93.599853515625
      ],
      "min": [
        -100.708251953125,
        -755.52783203125,
        -35.04345703125
      ],
      "type": "VEC3"
    },
    {
      "bufferView": 1,
      "byteOffset": 1440,
      "componentType": 5126,
      "count": 120,
      "max": [
        0.96718025207519531,
        0.82477736473083496,
        1
      ],
      "min": [
        -0.9645804762840271,
        -0.80923128128051758,
        -1
      ],
      "type": "VEC3"
    },
    {
      "bufferView": 2,
      "componentType": 5126,
      "count": 120,
      "max": [
        1,
        0.86465340852737427,
        0.95011097192764282,
        1
      ],
      "min": [
        -1,
        -0.86465340852737427,
        -0.94866651296615601,
        1
      ],
      "type": "VEC4"
    },
    {
      "bufferView": 0,
      "componentType": 5125,
      "count": 180,
      "max": [
        119
      ],
      "min": [
        0
      ],
      "type": "SCALAR"
    },
    {
      "bufferView": 1,
      "byteOffset": 2880,
      "componentType": 5126,
      "count": 480,
      "max": [
        550.8846435546875,
        755.52783203125,
        327.76007080078125
      ],
      "min": [
        -387.9898681640625,
        -198.9072265625,
        -327.76007080078125
      ],
      "type": "VEC3"
    },
    {
      "bufferView": 1,
      "byteOffset": 8640,
      "componentType": 5126,
      "count": 480,
      "max": [
        0.96976470947265625,
        0.99947351217269897,
        0.9645506739616394
      ],
      "min": [
        -0.96976470947265625,
        -0.99947351217269897,
        -0.9645506739616394
      ],
      "type": "VEC3"
    },
    {
      "bufferView": 2,
      "byteOffset": 1920,
      "componentType": 5126,
      "count": 480,
      "max": [
        0.99904221296310425,
        0.99879813194274902,
        0.98614120483398438,
        1
      ],
      "min": [
        -0.82675141096115112,
        -0.99879813194274902,
        -0.98614132404327393,
        1
      ],
      "type": "VEC4"
    },
    {
      "bufferView": 0,
      "byteOffset": 720,
      "componentType": 5125,
      "count": 720,
      "max": [
        479
      ],
      "min": [
        0
      ],
      "type": "SCALAR"
    },
    {
      "bufferView": 1,
      "byteOffset": 14400,
      "componentType": 5126,
      "count": 96,
      "max": [
        -200.16064453125,
        428.586181640625,
        218.0618896484375
      ],
      "min": [
        -550.884765625,
        91.6158447265625,
        -134.96490478515625
      ],
      "type": "VEC3"
    },
    {
      "bufferView": 1,
      "byteOffset": 15552,
      "componentType": 5126,
      "count": 96,
      "max": [
        0.95538973808288574,
        0.99989992380142212,
        0.95924341678619385
      ],
      "min": [
        -0.95538985729217529,
        -0.99989986419677734,
        -0.9592435359954834
      ],
      "type": "VEC3"
    },
    {
      "bufferView": 2,
      "byteOffset": 9600,
      "componentType": 5126,
      "count": 96,
      "max": [
        0.99887144565582275,
        0.99320042133331299,
        0.61374914646148682,
        1
      ],
      "min": [
        -0.65846425294876099,
        -0.99320042133331299,
        -0.61374908685684204,
        1
      ],
      "type": "VEC4"
    },
    {
      "bufferView": 0,
      "byteOffset": 3600,
      "componentType": 5125,
      "count": 144,
      "max": [
        95
      ],
      "min": [
        0
      ],
      "type": "SCALAR"
    }
  ],
  "asset": {
    "extras": {
      "author": "BlackSpire (https://sketchfab.com/blackspire)",
      "license": "CC-BY-4.0 (http://creativecommons.org/licenses/by/4.0/)",
      "source": "https://sketchfab.com/models/b1a48eb205bf44388b0025930f6ee8fd",
      "title": "Nature_Tree_01"
    },
    "generator": "Sketchfab-3.18.7",
    "version": "2.0"
  },
  "bufferViews": [
    {
      "buffer": 0,
      "byteLength": 4176,
      "byteOffset": 0,
      "name": "floatBufferViews",
      "target": 34963
    },
    {
      "buffer": 0,
      "byteLength": 16704,
      "byteOffset": 4176,
      "byteStride": 12,
      "name": "floatBufferViews",
      "target": 34962
    },
    {
      "buffer": 0,
      "byteLength": 11136,
      "byteOffset": 20880,
      "byteStride": 16,
      "name": "floatBufferViews",
      "target": 34962
    }
  ],
  "buffers": [
    {
      "byteLength": 32016,
      "uri": "scene.bin"
    }
  ],
  "materials": [
    {
      "doubleSided": true,
      "emissiveFactor": [
        0,
        0,
        0
      ],
      "name": "Legno01_Mat",
      "pbrMetallicRoughness": {
        "baseColorFactor": [
          0.23799999999999999,
          0.157776,
          0.09758,
          1
        ],
        "metallicFactor": 0,
        "roughnessFactor": 1
      }
    },
    {
      "doubleSided": true,
      "emissiveFactor": [
        0,
        0,
        0
      ],
      "name": "Albero01_Mat",
      "pbrMetallicRoughness": {
        "baseColorFactor": [
          0.65700000000000003,
          0.272204,
          0.101178,
          1
        ],
        "metallicFactor": 0,
        "roughnessFactor": 1
      }
    },
    {
      "doubleSided": true,
      "emissiveFactor": [
        0,
        0,
        0
      ],
      "name": "Albero02_Mat1",
      "pbrMetallicRoughness": {
        "baseColorFactor": [
          0.45600000000000002,
          0.13536400000000001,
          0.122664,
          1
        ],
        "metallicFactor": 0,
        "roughnessFactor": 1
      }
    }
  ],
  "meshes": [
    {
      "name": "pCylinder361_Legno01_Mat_0",
      "primitives": [
        {
          "attributes": {
            "NORMAL": 1,
            "POSITION": 0,
            "TANGENT": 2
          },
          "indices": 3,
          "material": 0,
          "mode": 4
        }
      ]
    },
    {
      "name": "pCylinder361_Albero01_Mat_0",
      "primitives": [
        {
          "attributes": {
            "NORMAL": 5,
            "POSITION": 4,
            "TANGENT": 6
          },
          "indices": 7,
          "material": 1,
          "mode": 4
        }
      ]
    },
    {
      "name": "pCylinder361_Albero02_Mat1_0",
      "primitives": [
        {
          "attributes": {
            "NORMAL": 9,
            "POSITION": 8,
            "TANGENT": 10
          },
          "indices": 11,
          "material": 2,
          "mode": 4
        }
      ]
    }
  ],
  "nodes": [
    {
      "children": [
        1
      ],
      "name": "RootNode (gltf orientation matrix)",
      "rotation": [
        -0.70710678118654746,
        -0,
        -0,
        0.70710678118654757
      ]
    },
    {
      "children": [
        2
      ],
      "name": "RootNode (model correction matrix)"
    },
    {
      "children": [
        3
      ],
      "matrix": [
        1,
        0,
        0,
        0,
        0,
        0,
        1,
        0,
        0,
        -1,
        0,
        0,
        0,
        0,
        0,
        1
      ],
      "name": "8b19681dc1a641f6b36cfbc70b3471e4.fbx"
    },
    {
      "children": [
        4
      ],
      "name": "RootNode"
    },
    {
      "children": [
        5,
        6,
        7
      ],
      "matrix": [
        0.0099999997764825821,
        0,
        0,
        0,
        0,
        0.0099999997764825821,
        0,
        0,
        0,
        0,
        0.0099999997764825821,
        0,
        0,
        0,
        0,
        1
      ],
      "name": "pCylinder361"
    },
    {
      "mesh": 0,
      "name": "pCylinder361_Legno01_Mat_0"
    },
    {
      "mesh": 1,
      "name": "pCylinder361_Albero01_Mat_0"
    },
    {
      "mesh": 2,
      "name": "pCylinder361_Albero02_Mat1_0"
    }
  ],
  "scene": 0,
  "scenes": [
    {
      "name": "OSG_Scene",
      "nodes": [
        0
      ]
    }
  ]
}

