{
  "accessors": [
    {
      "bufferView": 2,
      "componentType": 5126,
      "count": 4953,
      "max": [
        4.8268265724182129,
        8.7149810791015625,
        15.100156784057617
      ],
      "min": [
        -8.0291671752929688,
        -2.7613275051116943,
        -0.080838218331336975
      ],
      "type": "VEC3"
    },
    {
      "bufferView": 2,
      "byteOffset": 59436,
      "componentType": 5126,
      "count": 4953,
      "max": [
        0.99795246124267578,
        0.99832832813262939,
        0.99827438592910767
      ],
      "min": [
        -0.99385356903076172,
        -0.99944627285003662,
        -0.9997057318687439
      ],
      "type": "VEC3"
    },
    {
      "bufferView": 3,
      "componentType": 5126,
      "count": 4953,
      "max": [
        0.99962538480758667,
        0.99963945150375366,
        0.99977529048919678,
        1
      ],
      "min": [
        -0.99981957674026489,
        -0.99905890226364136,
        -0.9979400634765625,
        -1
      ],
      "type": "VEC4"
    },
    {
      "bufferView": 1,
      "componentType": 5126,
      "count": 4953,
      "max": [
        0.97317546606063843,
        0.98777413368225098
      ],
      "min": [
        0.0097375363111495972,
        0.012225836515426636
      ],
      "type": "VEC2"
    },
    {
      "bufferView": 0,
      "componentType": 5125,
      "count": 5295,
      "max": [
        4952
      ],
      "min": [
        0
      ],
      "type": "SCALAR"
    }
  ],
  "asset": {
    "extras": {
      "author": "nenjo (https://sketchfab.com/nenjo)",
      "license": "CC-BY-4.0 (http://creativecommons.org/licenses/by/4.0/)",
      "source": "https://sketchfab.com/models/2c596282c551468ea6c6a129405e6b68",
      "title": "Cypress Tree - Low Poly"
    },
    "generator": "Sketchfab-3.18.6",
    "version": "2.0"
  },
  "bufferViews": [
    {
      "buffer": 0,
      "byteLength": 21180,
      "byteOffset": 0,
      "name": "floatBufferViews",
      "target": 34963
    },
    {
      "buffer": 0,
      "byteLength": 39624,
      "byteOffset": 21180,
      "byteStride": 8,
      "name": "floatBufferViews",
      "target": 34962
    },
    {
      "buffer": 0,
      "byteLength": 118872,
      "byteOffset": 60804,
      "byteStride": 12,
      "name": "floatBufferViews",
      "target": 34962
    },
    {
      "buffer": 0,
      "byteLength": 79248,
      "byteOffset": 179676,
      "byteStride": 16,
      "name": "floatBufferViews",
      "target": 34962
    }
  ],
  "buffers": [
    {
      "byteLength": 258924,
      "uri": "scene.bin"
    }
  ],
  "images": [
    {
      "uri": "textures/mat.tree-cypress_baseColor.jpeg"
    }
  ],
  "materials": [
    {
      "doubleSided": true,
      "emissiveFactor": [
        0,
        0,
        0
      ],
      "name": "mat.tree-cypress",
      "pbrMetallicRoughness": {
        "baseColorFactor": [
          1,
          1,
          1,
          1
        ],
        "baseColorTexture": {
          "index": 0,
          "texCoord": 0
        },
        "metallicFactor": 0.37366615850000001,
        "roughnessFactor": 0.42244664630000001
      }
    }
  ],
  "meshes": [
    {
      "name": "tree_mat.tree-cypress_0",
      "primitives": [
        {
          "attributes": {
            "NORMAL": 1,
            "POSITION": 0,
            "TANGENT": 2,
            "TEXCOORD_0": 3
          },
          "indices": 4,
          "material": 0,
          "mode": 4
        }
      ]
    }
  ],
  "nodes": [
    {
      "children": [
        1
      ],
      "name": "RootNode (gltf orientation matrix)",
      "rotation": [
        -0.70710678118654746,
        -0,
        -0,
        0.70710678118654757
      ]
    },
    {
      "children": [
        2
      ],
      "name": "RootNode (model correction matrix)"
    },
    {
      "children": [
        3
      ],
      "matrix": [
        1,
        0,
        0,
        0,
        0,
        0,
        1,
        0,
        0,
        -1,
        0,
        0,
        0,
        0,
        0,
        1
      ],
      "name": "4e76df842f8447c0aed43f48628db32b.fbx"
    },
    {
      "children": [
        4,
        7,
        9,
        12
      ],
      "name": "RootNode"
    },
    {
      "children": [
        5
      ],
      "matrix": [
        100,
        0,
        0,
        0,
        0,
        99.999999999999716,
        -7.5497901264043296e-06,
        0,
        0,
        7.5497901264043296e-06,
        99.999999999999716,
        0,
        0,
        0,
        0,
        1
      ],
      "name": "Sun"
    },
    {
      "children": [
        6
      ],
      "matrix": [
        1,
        0,
        0,
        0,
        0,
        2.2204460492503131e-16,
        1,
        0,
        0,
        -1,
        2.2204460492503131e-16,
        0,
        0,
        0,
        0,
        1
      ],
      "name": ""
    },
    {
      "name": ""
    },
    {
      "children": [
        8
      ],
      "matrix": [
        100,
        0,
        0,
        0,
        0,
        -1.6292067939183141e-05,
        -99.999999999998678,
        0,
        0,
        99.999999999998678,
        -1.6292067939183141e-05,
        0,
        0,
        0,
        0,
        1
      ],
      "name": "tree"
    },
    {
      "mesh": 0,
      "name": "tree_mat.tree-cypress_0"
    },
    {
      "children": [
        10
      ],
      "matrix": [
        -29.08647719990347,
        -5.5189064575668629,
        -95.517119101714371,
        0,
        56.639309131094492,
        79.467234285632031,
        -21.839123978419661,
        0,
        77.110087759933748,
        -60.452463565620441,
        -19.988346967737169,
        0,
        407.62454223632812,
        590.38623046875,
        -100.54539489746094,
        1
      ],
      "name": "Lamp"
    },
    {
      "children": [
        11
      ],
      "matrix": [
        1,
        0,
        0,
        0,
        0,
        2.2204460492503131e-16,
        1,
        0,
        0,
        -1,
        2.2204460492503131e-16,
        0,
        0,
        0,
        0,
        1
      ],
      "name": ""
    },
    {
      "name": ""
    },
    {
      "children": [
        13
      ],
      "matrix": [
        -65.48615898796433,
        -44.524533257868029,
        -61.066594134371599,
        0,
        -31.737007733719864,
        89.53432833071254,
        -31.246862090103878,
        0,
        68.588084396000383,
        -1.0816600839305441,
        -72.763347162908659,
        0,
        748.1131591796875,
        534.36651611328125,
        650.76397705078125,
        1
      ],
      "name": "Camera"
    },
    {
      "name": ""
    }
  ],
  "samplers": [
    {
      "magFilter": 9729,
      "minFilter": 9987,
      "wrapS": 10497,
      "wrapT": 10497
    }
  ],
  "scene": 0,
  "scenes": [
    {
      "name": "OSG_Scene",
      "nodes": [
        0
      ]
    }
  ],
  "textures": [
    {
      "sampler": 0,
      "source": 0
    }
  ]
}

