{
    "asset" : {
        "generator" : "Khronos glTF Blender I/O v1.2.75",
        "version" : "2.0"
    },
    "scene" : 0,
    "scenes" : [
        {
            "name" : "Scene",
            "nodes" : [
                13,
                14,
                15
            ]
        }
    ],
    "nodes" : [
        {
            "name" : "Node_13"
        },
        {
            "children" : [
                0
            ],
            "name" : "Camera.001",
            "rotation" : [
                -0.21061137318611145,
                0.9052400588989258,
                -0.08928165584802628,
                0.358067125082016
            ],
            "scale" : [
                100,
                100,
                99.99999237060547
            ],
            "translation" : [
                748.1131591796875,
                534.3665161132812,
                650.7639770507812
            ]
        },
        {
            "name" : "Node_11"
        },
        {
            "children" : [
                2
            ],
            "name" : "Node_10",
            "rotation" : [
                0.7071068286895752,
                0,
                0,
                0.7071068286895752
            ]
        },
        {
            "children" : [
                3
            ],
            "name" : "Lamp",
            "rotation" : [
                0.16907569766044617,
                0.7558803558349609,
                -0.27217134833335876,
                0.570947527885437
            ],
            "scale" : [
                100.00000762939453,
                100,
                100
            ],
            "translation" : [
                407.6245422363281,
                590.38623046875,
                -100.54539489746094
            ]
        },
        {
            "name" : "Node_6"
        },
        {
            "children" : [
                5
            ],
            "name" : "Node_5",
            "rotation" : [
                0.7071068286895752,
                0,
                0,
                0.7071068286895752
            ]
        },
        {
            "children" : [
                6
            ],
            "name" : "Sun",
            "scale" : [
                100,
                100,
                100
            ]
        },
        {
            "mesh" : 0,
            "name" : "tree_mat.tree-cypress_0"
        },
        {
            "children" : [
                8
            ],
            "name" : "tree",
            "rotation" : [
                -0.7071068286895752,
                0,
                0,
                0.7071067094802856
            ],
            "scale" : [
                100,
                100,
                100
            ]
        },
        {
            "children" : [
                1,
                4,
                7,
                9
            ],
            "name" : "RootNode"
        },
        {
            "children" : [
                10
            ],
            "name" : "4e76df842f8447c0aed43f48628db32b.fbx",
            "rotation" : [
                0.7071068286895752,
                0,
                0,
                0.7071068286895752
            ]
        },
        {
            "children" : [
                11
            ],
            "name" : "RootNode (model correction matrix)"
        },
        {
            "children" : [
                12
            ],
            "name" : "RootNode (gltf orientation matrix)",
            "rotation" : [
                -0.7071067690849304,
                0,
                0,
                0.7071067690849304
            ]
        },
        {
            "name" : "Light",
            "rotation" : [
                0.16907575726509094,
                0.7558803558349609,
                -0.27217137813568115,
                0.570947527885437
            ],
            "translation" : [
                4.076245307922363,
                5.903861999511719,
                -1.0054539442062378
            ]
        },
        {
            "name" : "Camera",
            "rotation" : [
                0.483536034822464,
                0.33687159419059753,
                -0.20870360732078552,
                0.7804827094078064
            ],
            "translation" : [
                7.358891487121582,
                4.958309173583984,
                6.925790786743164
            ]
        }
    ],
    "materials" : [
        {
            "doubleSided" : true,
            "emissiveFactor" : [
                0,
                0,
                0
            ],
            "name" : "mat.tree-cypress",
            "pbrMetallicRoughness" : {
                "baseColorTexture" : {
                    "index" : 0,
                    "texCoord" : 0
                },
                "metallicFactor" : 0,
                "roughnessFactor" : 1
            }
        }
    ],
    "meshes" : [
        {
            "name" : "tree_mat.tree-cypress_0",
            "primitives" : [
                {
                    "attributes" : {
                        "POSITION" : 0,
                        "NORMAL" : 1,
                        "TEXCOORD_0" : 2
                    },
                    "indices" : 3,
                    "material" : 0
                }
            ]
        }
    ],
    "textures" : [
        {
            "source" : 0
        }
    ],
    "images" : [
        {
            "bufferView" : 4,
            "mimeType" : "image/jpeg",
            "name" : "mat.tree-cypress_baseColor"
        }
    ],
    "accessors" : [
        {
            "bufferView" : 0,
            "componentType" : 5126,
            "count" : 4961,
            "max" : [
                4.826826572418213,
                8.714981079101562,
                15.100156784057617
            ],
            "min" : [
                -8.029167175292969,
                -2.7613275051116943,
                -0.08083821833133698
            ],
            "type" : "VEC3"
        },
        {
            "bufferView" : 1,
            "componentType" : 5126,
            "count" : 4961,
            "type" : "VEC3"
        },
        {
            "bufferView" : 2,
            "componentType" : 5126,
            "count" : 4961,
            "type" : "VEC2"
        },
        {
            "bufferView" : 3,
            "componentType" : 5123,
            "count" : 5295,
            "type" : "SCALAR"
        }
    ],
    "bufferViews" : [
        {
            "buffer" : 0,
            "byteLength" : 59532,
            "byteOffset" : 0
        },
        {
            "buffer" : 0,
            "byteLength" : 59532,
            "byteOffset" : 59532
        },
        {
            "buffer" : 0,
            "byteLength" : 39688,
            "byteOffset" : 119064
        },
        {
            "buffer" : 0,
            "byteLength" : 10590,
            "byteOffset" : 158752
        },
        {
            "buffer" : 0,
            "byteLength" : 506609,
            "byteOffset" : 169344
        }
    ],
    "buffers" : [
        {
            "byteLength" : 675956,
            "uri" : "data:application/octet-stream;base64,"
        }
    ]
}
