{
  "accessors": [
    {
      "bufferView": 2,
      "componentType": 5126,
      "count": 41,
      "max": [
        0.96369999647140503,
        1.0652999877929688,
        2.1751000881195068
      ],
      "min": [
        -0.91839998960494995,
        -0.73640000820159912,
        -0.17810000479221344
      ],
      "type": "VEC3"
    },
    {
      "bufferView": 2,
      "byteOffset": 492,
      "componentType": 5126,
      "count": 41,
      "max": [
        0.9545559287071228,
        0.94158935546875,
        0.92966842651367188
      ],
      "min": [
        -0.96913051605224609,
        -0.96295672655105591,
        -0.9627649188041687
      ],
      "type": "VEC3"
    },
    {
      "bufferView": 3,
      "componentType": 5126,
      "count": 41,
      "max": [
        0.83095604181289673,
        0.98568081855773926,
        0.9988676905632019,
        1
      ],
      "min": [
        -0.99453198909759521,
        -0.91863644123077393,
        -0.89155757427215576,
        1
      ],
      "type": "VEC4"
    },
    {
      "bufferView": 1,
      "componentType": 5126,
      "count": 41,
      "max": [
        0.99199998378753662,
        0.99129998683929443
      ],
      "min": [
        0.0096000004559755325,
        0.008500000461935997
      ],
      "type": "VEC2"
    },
    {
      "bufferView": 0,
      "componentType": 5125,
      "count": 162,
      "max": [
        40
      ],
      "min": [
        0
      ],
      "type": "SCALAR"
    },
    {
      "bufferView": 2,
      "byteOffset": 984,
      "componentType": 5126,
      "count": 41,
      "max": [
        0.96369999647140503,
        1.0652999877929688,
        2.1751000881195068
      ],
      "min": [
        -0.91839998960494995,
        -0.73640000820159912,
        -0.17810000479221344
      ],
      "type": "VEC3"
    },
    {
      "bufferView": 2,
      "byteOffset": 1476,
      "componentType": 5126,
      "count": 41,
      "max": [
        0.9545559287071228,
        0.94158935546875,
        0.92966842651367188
      ],
      "min": [
        -0.96913051605224609,
        -0.96295672655105591,
        -0.9627649188041687
      ],
      "type": "VEC3"
    },
    {
      "bufferView": 3,
      "byteOffset": 656,
      "componentType": 5126,
      "count": 41,
      "max": [
        0.83095604181289673,
        0.98568081855773926,
        0.9988676905632019,
        1
      ],
      "min": [
        -0.99453198909759521,
        -0.91863644123077393,
        -0.89155757427215576,
        1
      ],
      "type": "VEC4"
    },
    {
      "bufferView": 1,
      "byteOffset": 328,
      "componentType": 5126,
      "count": 41,
      "max": [
        0.99199998378753662,
        0.99129998683929443
      ],
      "min": [
        0.0096000004559755325,
        0.008500000461935997
      ],
      "type": "VEC2"
    },
    {
      "bufferView": 0,
      "byteOffset": 648,
      "componentType": 5125,
      "count": 162,
      "max": [
        40
      ],
      "min": [
        0
      ],
      "type": "SCALAR"
    },
    {
      "bufferView": 2,
      "byteOffset": 1968,
      "componentType": 5126,
      "count": 41,
      "max": [
        0.96369999647140503,
        1.0652999877929688,
        2.1751000881195068
      ],
      "min": [
        -0.91839998960494995,
        -0.73640000820159912,
        -0.17810000479221344
      ],
      "type": "VEC3"
    },
    {
      "bufferView": 2,
      "byteOffset": 2460,
      "componentType": 5126,
      "count": 41,
      "max": [
        0.9545559287071228,
        0.94158935546875,
        0.92966842651367188
      ],
      "min": [
        -0.96913051605224609,
        -0.96295672655105591,
        -0.9627649188041687
      ],
      "type": "VEC3"
    },
    {
      "bufferView": 3,
      "byteOffset": 1312,
      "componentType": 5126,
      "count": 41,
      "max": [
        0.83095604181289673,
        0.98568081855773926,
        0.9988676905632019,
        1
      ],
      "min": [
        -0.99453198909759521,
        -0.91863644123077393,
        -0.89155757427215576,
        1
      ],
      "type": "VEC4"
    },
    {
      "bufferView": 1,
      "byteOffset": 656,
      "componentType": 5126,
      "count": 41,
      "max": [
        0.99199998378753662,
        0.99129998683929443
      ],
      "min": [
        0.0096000004559755325,
        0.008500000461935997
      ],
      "type": "VEC2"
    },
    {
      "bufferView": 0,
      "byteOffset": 1296,
      "componentType": 5125,
      "count": 162,
      "max": [
        40
      ],
      "min": [
        0
      ],
      "type": "SCALAR"
    }
  ],
  "asset": {
    "extras": {
      "author": "Jom (https://sketchfab.com/jom239300891)",
      "license": "CC-BY-4.0 (http://creativecommons.org/licenses/by/4.0/)",
      "source": "https://sketchfab.com/3d-models/crystal-5d4a5bbdd8ca47258a9eaaa4e83cf700",
      "title": "Crystal"
    },
    "generator": "Sketchfab-4.78.0",
    "version": "2.0"
  },
  "bufferViews": [
    {
      "buffer": 0,
      "byteLength": 1944,
      "byteOffset": 0,
      "name": "floatBufferViews",
      "target": 34963
    },
    {
      "buffer": 0,
      "byteLength": 984,
      "byteOffset": 1944,
      "byteStride": 8,
      "name": "floatBufferViews",
      "target": 34962
    },
    {
      "buffer": 0,
      "byteLength": 2952,
      "byteOffset": 2928,
      "byteStride": 12,
      "name": "floatBufferViews",
      "target": 34962
    },
    {
      "buffer": 0,
      "byteLength": 1968,
      "byteOffset": 5880,
      "byteStride": 16,
      "name": "floatBufferViews",
      "target": 34962
    }
  ],
  "buffers": [
    {
      "byteLength": 7848,
      "uri": "scene.bin"
    }
  ],
  "images": [
    {
      "uri": "textures/default_emissive.png"
    },
    {
      "uri": "textures/default_baseColor.png"
    },
    {
      "uri": "textures/default_metallicRoughness.png"
    },
    {
      "uri": "textures/default_normal.png"
    }
  ],
  "materials": [
    {
      "alphaMode": "BLEND",
      "doubleSided": true,
      "emissiveFactor": [
        1,
        1,
        1
      ],
      "emissiveTexture": {
        "index": 0,
        "texCoord": 0
      },
      "name": "default",
      "normalTexture": {
        "index": 3,
        "scale": 1,
        "texCoord": 0
      },
      "pbrMetallicRoughness": {
        "baseColorFactor": [
          1,
          1,
          1,
          0.76305259150000004
        ],
        "baseColorTexture": {
          "index": 1,
          "texCoord": 0
        },
        "metallicFactor": 0.58012576220000001,
        "metallicRoughnessTexture": {
          "index": 2,
          "texCoord": 0
        },
        "roughnessFactor": 1
      }
    }
  ],
  "meshes": [
    {
      "name": "Group7013_default_0",
      "primitives": [
        {
          "attributes": {
            "NORMAL": 1,
            "POSITION": 0,
            "TANGENT": 2,
            "TEXCOORD_0": 3
          },
          "indices": 4,
          "material": 0,
          "mode": 4
        }
      ]
    },
    {
      "name": "Group7014_default_0",
      "primitives": [
        {
          "attributes": {
            "NORMAL": 6,
            "POSITION": 5,
            "TANGENT": 7,
            "TEXCOORD_0": 8
          },
          "indices": 9,
          "material": 0,
          "mode": 4
        }
      ]
    },
    {
      "name": "Group7015_default_0",
      "primitives": [
        {
          "attributes": {
            "NORMAL": 11,
            "POSITION": 10,
            "TANGENT": 12,
            "TEXCOORD_0": 13
          },
          "indices": 14,
          "material": 0,
          "mode": 4
        }
      ]
    }
  ],
  "nodes": [
    {
      "children": [
        1
      ],
      "name": "RootNode (gltf orientation matrix)",
      "rotation": [
        -0.70710678118654746,
        -0,
        -0,
        0.70710678118654757
      ]
    },
    {
      "children": [
        2
      ],
      "name": "RootNode (model correction matrix)"
    },
    {
      "children": [
        3
      ],
      "matrix": [
        1,
        0,
        0,
        0,
        0,
        0,
        1,
        0,
        0,
        -1,
        0,
        0,
        0,
        0,
        0,
        1
      ],
      "name": "e9d5dc1b0c904e83b812b4f25a84556c.fbx"
    },
    {
      "children": [
        4,
        6,
        8
      ],
      "name": "RootNode"
    },
    {
      "children": [
        5
      ],
      "matrix": [
        1,
        0,
        0,
        0,
        0,
        2.2204460492503131e-16,
        -1,
        0,
        0,
        1,
        2.2204460492503131e-16,
        0,
        0,
        0.19816865026950836,
        8.6622264916513814e-09,
        1
      ],
      "name": "Group7013"
    },
    {
      "mesh": 0,
      "name": "Group7013_default_0"
    },
    {
      "children": [
        7
      ],
      "matrix": [
        -0.44384956042669632,
        1.2263373781466547e-16,
        -0.58759619146600772,
        0,
        -0.58759619146600772,
        0,
        0.44384956042669621,
        0,
        1.2263373781466547e-16,
        0.73639100790023804,
        0,
        0,
        1.5309329032897949,
        0.16220399737358093,
        -0.83159494400024414,
        1
      ],
      "name": "Group7014"
    },
    {
      "mesh": 1,
      "name": "Group7014_default_0"
    },
    {
      "children": [
        9
      ],
      "matrix": [
        -0.4751171152753324,
        0.13991633614374291,
        -1.0256178886995577,
        0,
        -1.0211225779035895,
        0.12158895453248773,
        0.48962201237199865,
        0,
        0.20725335291471284,
        1.372939359497813,
        0.091288413347789393,
        0,
        -2.0944669246673584,
        0.20070351660251617,
        -2.3079814910888672,
        1
      ],
      "name": "Group7015"
    },
    {
      "mesh": 2,
      "name": "Group7015_default_0"
    }
  ],
  "samplers": [
    {
      "magFilter": 9729,
      "minFilter": 9987,
      "wrapS": 10497,
      "wrapT": 10497
    }
  ],
  "scene": 0,
  "scenes": [
    {
      "name": "OSG_Scene",
      "nodes": [
        0
      ]
    }
  ],
  "textures": [
    {
      "sampler": 0,
      "source": 0
    },
    {
      "sampler": 0,
      "source": 1
    },
    {
      "sampler": 0,
      "source": 2
    },
    {
      "sampler": 0,
      "source": 3
    }
  ]
}

